<svg xmlns="http://www.w3.org/2000/svg" version="1.1" xmlns:xlink="http://www.w3.org/1999/xlink" xmlns:svgjs="http://svgjs.dev/svgjs" viewBox="0 0 1422 800"><g stroke-width="2" stroke="hsl(89, 73%, 48%)" fill="none" stroke-linecap="round"><path d="M 0 322 Q 355.5 250 711 400 Q 1066.5 550 1422 322" opacity="0.53"></path><path d="M 0 299 Q 355.5 250 711 400 Q 1066.5 550 1422 299" opacity="0.53"></path><path d="M 0 276 Q 355.5 250 711 400 Q 1066.5 550 1422 276" opacity="0.75"></path><path d="M 0 253 Q 355.5 250 711 400 Q 1066.5 550 1422 253" opacity="0.78"></path><path d="M 0 230 Q 355.5 250 711 400 Q 1066.5 550 1422 230" opacity="0.53"></path><path d="M 0 207 Q 355.5 250 711 400 Q 1066.5 550 1422 207" opacity="0.74"></path><path d="M 0 184 Q 355.5 250 711 400 Q 1066.5 550 1422 184" opacity="0.14"></path><path d="M 0 161 Q 355.5 250 711 400 Q 1066.5 550 1422 161" opacity="0.64"></path><path d="M 0 138 Q 355.5 250 711 400 Q 1066.5 550 1422 138" opacity="0.45"></path><path d="M 0 115 Q 355.5 250 711 400 Q 1066.5 550 1422 115" opacity="0.15"></path><path d="M 0 92 Q 355.5 250 711 400 Q 1066.5 550 1422 92" opacity="0.26"></path><path d="M 0 69 Q 355.5 250 711 400 Q 1066.5 550 1422 69" opacity="0.50"></path><path d="M 0 46 Q 355.5 250 711 400 Q 1066.5 550 1422 46" opacity="0.91"></path></g></svg>